<svg width="595" height="842" viewBox="0 0 595 842" fill="none" xmlns="http://www.w3.org/2000/svg">
<rect width="595" height="842" fill="white"/>
<rect x="32" y="261" width="157" height="15" rx="7.5" fill="#D9D9D9"/>
<rect x="32" y="282" width="76" height="9" rx="4.5" fill="#D9D9D9"/>
<rect x="32" y="303" width="304" height="9" rx="4.5" fill="#D9D9D9"/>
<rect x="32" y="317" width="245" height="9" rx="4.5" fill="#D9D9D9"/>
<rect x="44" y="341" width="315" height="9" rx="4.5" fill="#D9D9D9"/>
<rect x="44" y="358" width="253" height="9" rx="4.5" fill="#D9D9D9"/>
<rect x="44" y="375" width="233" height="9" rx="4.5" fill="#D9D9D9"/>
<rect x="44" y="394" width="247" height="9" rx="4.5" fill="#D9D9D9"/>
<rect x="44" y="410" width="110" height="9" rx="4.5" fill="#D9D9D9"/>
<rect x="44" y="428" width="257" height="9" rx="4.5" fill="#D9D9D9"/>
<rect x="44" y="445" width="92" height="9" rx="4.5" fill="#D9D9D9"/>
<rect x="44" y="462" width="214" height="9" rx="4.5" fill="#D9D9D9"/>
<rect x="44" y="479" width="217" height="9" rx="4.5" fill="#D9D9D9"/>
<rect x="44" y="498" width="76" height="9" rx="4.5" fill="#D9D9D9"/>
<circle cx="39" cy="345" r="2" fill="#B3B3B3"/>
<circle cx="39" cy="362" r="2" fill="#B3B3B3"/>
<circle cx="39" cy="379" r="2" fill="#B3B3B3"/>
<circle cx="39" cy="398" r="2" fill="#B3B3B3"/>
<circle cx="39" cy="414" r="2" fill="#B3B3B3"/>
<circle cx="39" cy="432" r="2" fill="#B3B3B3"/>
<circle cx="39" cy="449" r="2" fill="#B3B3B3"/>
<circle cx="39" cy="466" r="2" fill="#B3B3B3"/>
<circle cx="39" cy="483" r="2" fill="#B3B3B3"/>
<circle cx="39" cy="502" r="2" fill="#B3B3B3"/>
<rect x="32" y="531" width="157" height="15" rx="7.5" fill="#D9D9D9"/>
<rect x="32" y="573" width="230" height="9" rx="4.5" fill="#D9D9D9"/>
<rect x="44" y="589" width="312" height="9" rx="4.5" fill="#D9D9D9"/>
<rect x="44" y="603" width="220" height="9" rx="4.5" fill="#D9D9D9"/>
<rect x="44" y="619" width="185" height="9" rx="4.5" fill="#D9D9D9"/>
<rect x="44" y="637" width="305" height="9" rx="4.5" fill="#D9D9D9"/>
<circle cx="39" cy="593" r="2" fill="#B3B3B3"/>
<circle cx="39" cy="623" r="2" fill="#B3B3B3"/>
<circle cx="39" cy="641" r="2" fill="#B3B3B3"/>
<rect x="32" y="670" width="157" height="15" rx="7.5" fill="#D9D9D9"/>
<rect x="32" y="715" width="327" height="9" rx="4.5" fill="#D9D9D9"/>
<rect x="32" y="728" width="283" height="9" rx="4.5" fill="#D9D9D9"/>
<rect x="32" y="741" width="319" height="9" rx="4.5" fill="#D9D9D9"/>
<rect x="32" y="754" width="191" height="9" rx="4.5" fill="#D9D9D9"/>
<rect x="32" y="230" width="70" height="14" rx="7" fill="#D9D9D9"/>
<rect x="32" y="549" width="76" height="9" rx="4.5" fill="#D9D9D9"/>
<rect x="44" y="649" width="76" height="9" rx="4.5" fill="#D9D9D9"/>
<rect x="32" y="689" width="76" height="9" rx="4.5" fill="#D9D9D9"/>
<rect x="33" y="149" width="42" height="14" rx="7" fill="#D9D9D9"/>
<rect x="33" y="174" width="330" height="12" rx="6" fill="#D9D9D9"/>
<rect x="403" y="252" width="87" height="15" rx="7.5" fill="#D9D9D9"/>
<rect x="403" y="279" width="74" height="10" rx="5" fill="#D9D9D9"/>
<rect x="403" y="301" width="52" height="10" rx="5" fill="#D9D9D9"/>
<rect x="403" y="323" width="77" height="10" rx="5" fill="#D9D9D9"/>
<rect x="403" y="345" width="83" height="10" rx="5" fill="#D9D9D9"/>
<rect x="403" y="367" width="65" height="10" rx="5" fill="#D9D9D9"/>
<rect x="403" y="389" width="74" height="10" rx="5" fill="#D9D9D9"/>
<rect x="403" y="411" width="83" height="10" rx="5" fill="#D9D9D9"/>
<rect width="595" height="124" fill="#F3F7FA"/>
<path opacity="0.72" d="M0 124H595" stroke="#E3EAF9"/>
<g filter="url(#filter0_di_71_628)">
<circle cx="61" cy="62" r="29" fill="#C4C4C4"/>
<circle cx="61" cy="62" r="28" stroke="white" stroke-width="2"/>
</g>
<rect x="446" y="56" width="117" height="12" rx="6" fill="#D9D9D9"/>
<rect x="481" y="73" width="82" height="12" rx="6" fill="#D9D9D9"/>
<rect x="473" y="108" width="90" height="7" rx="3.5" fill="#D9D9D9"/>
<rect x="97" y="41" width="132" height="19" rx="9.5" fill="#D9D9D9"/>
<rect x="98" y="67" width="108" height="12" rx="6" fill="#D9D9D9"/>
<rect x="485" y="41" width="78" height="12" rx="6" fill="#D9D9D9"/>
<rect x="33" y="188" width="228" height="12" rx="6" fill="#D9D9D9"/>
<rect x="403" y="151" width="87" height="15" rx="7.5" fill="#D9D9D9"/>
<rect x="403" y="177" width="113" height="19" rx="9.5" fill="#D9D9D9"/>
<rect x="403" y="200" width="113" height="19" rx="9.5" fill="#D9D9D9"/>
<rect x="401" y="445" width="110" height="15" rx="7.5" fill="#D9D9D9"/>
<rect x="403" y="468" width="41" height="15" rx="7.5" fill="#D9D9D9"/>
<rect x="453" y="468" width="41" height="15" rx="7.5" fill="#D9D9D9"/>
<rect x="503" y="468" width="41" height="15" rx="7.5" fill="#D9D9D9"/>
<rect x="403" y="488" width="41" height="15" rx="7.5" fill="#D9D9D9"/>
<rect x="453" y="488" width="41" height="15" rx="7.5" fill="#D9D9D9"/>
<rect x="503" y="488" width="41" height="15" rx="7.5" fill="#D9D9D9"/>
<rect x="403" y="608" width="60" height="15" rx="7.5" fill="#D9D9D9"/>
<rect x="404" y="634" width="50" height="12" rx="6" fill="#D9D9D9"/>
<rect x="404" y="653" width="41" height="12" rx="6" fill="#D9D9D9"/>
<rect x="405" y="725" width="41" height="12" rx="6" fill="#D9D9D9"/>
<rect x="404" y="507" width="41" height="15" rx="7.5" fill="#D9D9D9"/>
<rect x="454" y="507" width="41" height="15" rx="7.5" fill="#D9D9D9"/>
<rect x="504" y="507" width="41" height="15" rx="7.5" fill="#D9D9D9"/>
<rect x="404" y="527" width="41" height="15" rx="7.5" fill="#D9D9D9"/>
<rect x="454" y="527" width="41" height="15" rx="7.5" fill="#D9D9D9"/>
<rect x="504" y="527" width="41" height="15" rx="7.5" fill="#D9D9D9"/>
<rect x="404" y="671" width="64" height="12" rx="6" fill="#D9D9D9"/>
<rect x="404" y="689" width="76" height="12" rx="6" fill="#D9D9D9"/>
<rect x="404" y="707" width="56" height="12" rx="6" fill="#D9D9D9"/>
<defs>
<filter id="filter0_di_71_628" x="28" y="30" width="66" height="66" filterUnits="userSpaceOnUse" color-interpolation-filters="sRGB">
<feFlood flood-opacity="0" result="BackgroundImageFix"/>
<feColorMatrix in="SourceAlpha" type="matrix" values="0 0 0 0 0 0 0 0 0 0 0 0 0 0 0 0 0 0 127 0" result="hardAlpha"/>
<feOffset dy="1"/>
<feGaussianBlur stdDeviation="2"/>
<feComposite in2="hardAlpha" operator="out"/>
<feColorMatrix type="matrix" values="0 0 0 0 0.82125 0 0 0 0 0.854432 0 0 0 0 0.9125 0 0 0 0.32 0"/>
<feBlend mode="normal" in2="BackgroundImageFix" result="effect1_dropShadow_71_628"/>
<feBlend mode="normal" in="SourceGraphic" in2="effect1_dropShadow_71_628" result="shape"/>
<feColorMatrix in="SourceAlpha" type="matrix" values="0 0 0 0 0 0 0 0 0 0 0 0 0 0 0 0 0 0 127 0" result="hardAlpha"/>
<feOffset/>
<feGaussianBlur stdDeviation="4.5"/>
<feComposite in2="hardAlpha" operator="arithmetic" k2="-1" k3="1"/>
<feColorMatrix type="matrix" values="0 0 0 0 0.131042 0 0 0 0 0.227746 0 0 0 0 0.308333 0 0 0 0.03 0"/>
<feBlend mode="normal" in2="shape" result="effect2_innerShadow_71_628"/>
</filter>
</defs>
</svg>
